# Blender 4.1.1
# www.blender.org
mtllib E.mtl
o E
v 6.699999 8.529499 8.130751
v 6.699999 8.529499 10.500000
v 6.700000 -4.511500 10.500000
v 6.699999 8.529499 -10.443001
v 6.699999 8.529499 -8.073750
v 6.700000 -1.834000 -8.073750
v 6.700000 -1.834000 8.130751
v 6.700000 -4.511500 -10.443001
v -6.300000 -4.511500 10.500000
v -6.300001 8.529498 10.500000
v -6.300001 8.529498 8.130751
v -6.300000 -1.834001 -8.073750
v -6.300001 8.529498 -8.073750
v -6.300001 8.529498 -10.443001
v -6.300000 -1.834001 8.130751
v -6.300000 -4.511500 -10.443001
v 6.699999 7.521501 1.198500
v 6.700000 -3.094000 1.198500
v 6.700000 -3.094000 -1.141500
v 6.699999 7.521501 -1.141500
v -6.300000 -3.094001 -1.141500
v -6.300000 -3.094001 1.198500
v -6.300001 7.521500 1.198500
v -6.300001 7.521500 -1.141500
vn 0.3440 0.6389 -0.6881
vn 0.3440 0.6389 0.6881
vn 0.3440 -0.6389 0.6881
vn 0.7397 0.4579 0.4931
vn 0.7397 0.4579 -0.4931
vn 0.3440 -0.6389 -0.6881
vn -0.3440 -0.6389 0.6881
vn -0.3440 0.6389 0.6881
vn -0.3440 0.6389 -0.6881
vn -0.7397 0.4579 0.4931
vn -0.7397 0.4579 -0.4931
vn -0.3440 -0.6389 -0.6881
s 1
f 1//1 2//2 3//3
f 4//1 5//2 6//4
f 7//5 1//1 3//3
f 8//6 4//1 6//4
f 7//5 3//3 8//6
f 8//6 6//4 7//5
f 9//7 10//8 11//9
f 12//10 13//8 14//9
f 9//7 11//9 15//11
f 12//10 14//9 16//12
f 16//12 9//7 15//11
f 15//11 12//10 16//12
f 2//2 1//1 10//8
f 1//1 11//9 10//8
f 1//1 7//5 11//9
f 7//5 15//11 11//9
f 7//5 6//4 15//11
f 6//4 12//10 15//11
f 6//4 5//2 12//10
f 5//2 13//8 12//10
f 5//2 4//1 13//8
f 4//1 14//9 13//8
f 4//1 8//6 14//9
f 8//6 16//12 14//9
f 8//6 3//3 16//12
f 3//3 9//7 16//12
f 3//3 2//2 9//7
f 2//2 10//8 9//7
f 17//2 18//3 19//6
f 19//6 20//1 17//2
f 21//12 22//7 23//8
f 23//8 24//9 21//12
f 17//2 20//1 23//8
f 20//1 24//9 23//8
f 20//1 19//6 24//9
f 19//6 21//12 24//9
f 19//6 18//3 21//12
f 18//3 22//7 21//12
f 18//3 17//2 22//7
f 17//2 23//8 22//7
