# Blender 4.1.1
# www.blender.org
mtllib V2.mtl
o V
v 6.499998 -2.176003 -11.819201
v 6.500000 1.971197 -11.819201
v 6.499998 8.883202 7.937600
v 6.499996 -5.257598 7.937603
v 6.499996 -9.059200 7.937603
v 6.499998 4.678401 7.937600
v 6.499998 -0.275203 -6.808001
v 6.499998 -0.361603 -6.808001
v -6.300004 8.883202 7.937600
v -6.300002 1.971197 -11.819201
v -6.300002 -2.176003 -11.819201
v -6.300004 -9.059200 7.937603
v -6.300004 -5.257598 7.937603
v -6.300002 -0.275203 -6.808001
v -6.300004 4.678401 7.937600
v -6.300002 -0.361603 -6.808001
vn 0.3488 -0.5429 -0.7640
vn 0.3489 0.5423 -0.7643
vn 0.3214 0.7723 0.5480
vn 0.3480 0.5486 0.7602
vn 0.3215 -0.7719 0.5485
vn 0.3482 -0.5472 0.7611
vn 0.6521 -0.4426 0.6155
vn 0.6529 0.4432 0.6142
vn -0.3214 0.7722 0.5480
vn -0.3488 0.5423 -0.7643
vn -0.3488 -0.5428 -0.7640
vn -0.3215 -0.7719 0.5485
vn -0.3480 0.5486 0.7602
vn -0.6521 -0.4425 0.6155
vn -0.3482 -0.5472 0.7611
vn -0.6529 0.4432 0.6142
s 1
f 1//1 2//2 3//3
f 4//4 5//5 1//1
f 3//3 6//6 7//7
f 8//8 4//4 1//1
f 1//1 3//3 7//7
f 7//7 8//8 1//1
f 9//9 10//10 11//11
f 11//11 12//12 13//13
f 14//14 15//15 9//9
f 11//11 13//13 16//16
f 14//14 9//9 11//11
f 11//11 16//16 14//14
f 1//1 5//5 11//11
f 5//5 12//12 11//11
f 5//5 4//4 12//12
f 4//4 13//13 12//12
f 4//4 8//8 13//13
f 8//8 16//16 13//13
f 8//8 7//7 16//16
f 7//7 14//14 16//16
f 7//7 6//6 14//14
f 6//6 15//15 14//14
f 6//6 3//3 15//15
f 3//3 9//9 15//15
f 3//3 2//2 9//9
f 2//2 10//10 9//9
f 2//2 1//1 10//10
f 1//1 11//11 10//10
